<svg width="100" height="100" xmlns="http://www.w3.org/2000/svg"><path d="M10 10 C 20 20, 40 20, 50 10 C 60 0, 80 0, 90 10 C 100 20, 100 40, 90 50 C 80 60, 60 60, 50 50 C 40 40, 20 40, 10 50" stroke="#FF4E50" fill="none" stroke-width="2" stroke-linecap="round"/><path d="M10 90 C 20 80, 40 80, 50 90 C 60 100, 80 100, 90 90 C 100 80, 100 60, 90 50 C 80 40, 60 40, 50 50 C 40 60, 20 60, 10 50" stroke="#FC913A" fill="none" stroke-width="2" stroke-linecap="round"/><path d="M30 30 Q 40 50, 50 30 T 70 30" stroke="#F9D423" fill="none" stroke-width="2" stroke-linecap="round"/><path d="M30 70 Q 40 50, 50 70 T 70 70" stroke="#EDE574" fill="none" stroke-width="2" stroke-linecap="round"/><path d="M50 50 L 50 50" stroke="#E1F5C4" stroke-width="5" stroke-linecap="round"/></svg>